<mxfile host="app.diagrams.net" agent="Mozilla/5.0 (Macintosh; Intel Mac OS X 10_15_7) AppleWebKit/537.36 (KHTML, like Gecko) Chrome/128.0.0.0 Safari/537.36" version="24.7.8">
  <diagram name="Strona-1" id="diypcTc6_78s_wwE16Ay">
    <mxGraphModel dx="1137" dy="719" grid="1" gridSize="10" guides="1" tooltips="1" connect="1" arrows="1" fold="1" page="1" pageScale="1" pageWidth="827" pageHeight="1169" math="0" shadow="0">
      <root>
        <mxCell id="0" />
        <mxCell id="1" parent="0" />
        <mxCell id="ccWnFZst2IsXS-5hjGJ8-20" style="edgeStyle=orthogonalEdgeStyle;rounded=0;orthogonalLoop=1;jettySize=auto;html=1;exitX=1;exitY=0.5;exitDx=0;exitDy=0;entryX=0;entryY=0.5;entryDx=0;entryDy=0;" edge="1" parent="1" source="ccWnFZst2IsXS-5hjGJ8-2" target="ccWnFZst2IsXS-5hjGJ8-9">
          <mxGeometry relative="1" as="geometry" />
        </mxCell>
        <mxCell id="ccWnFZst2IsXS-5hjGJ8-2" value="&lt;b&gt;Question:&amp;nbsp;&lt;/b&gt;&lt;div&gt;What is the name of the executive producer of the film that has a score composed by Jerry Goldsmith?&lt;/div&gt;" style="rounded=0;whiteSpace=wrap;html=1;fillColor=#f8cecc;strokeColor=#b85450;" vertex="1" parent="1">
          <mxGeometry x="170" y="210" width="160" height="100" as="geometry" />
        </mxCell>
        <mxCell id="ccWnFZst2IsXS-5hjGJ8-17" style="edgeStyle=orthogonalEdgeStyle;rounded=0;orthogonalLoop=1;jettySize=auto;html=1;exitX=1;exitY=0.5;exitDx=0;exitDy=0;entryX=0;entryY=0.5;entryDx=0;entryDy=0;" edge="1" parent="1" source="ccWnFZst2IsXS-5hjGJ8-3" target="ccWnFZst2IsXS-5hjGJ8-4">
          <mxGeometry relative="1" as="geometry" />
        </mxCell>
        <mxCell id="ccWnFZst2IsXS-5hjGJ8-3" value="&lt;b&gt;Answer:&amp;nbsp;&lt;/b&gt;&lt;div&gt;Ronald Shusett&lt;/div&gt;" style="rounded=0;whiteSpace=wrap;html=1;fillColor=#f8cecc;strokeColor=#b85450;" vertex="1" parent="1">
          <mxGeometry x="170" y="330" width="160" height="50" as="geometry" />
        </mxCell>
        <mxCell id="ccWnFZst2IsXS-5hjGJ8-23" style="edgeStyle=orthogonalEdgeStyle;rounded=0;orthogonalLoop=1;jettySize=auto;html=1;exitX=1;exitY=0.5;exitDx=0;exitDy=0;entryX=0;entryY=0.5;entryDx=0;entryDy=0;" edge="1" parent="1" source="ccWnFZst2IsXS-5hjGJ8-4" target="ccWnFZst2IsXS-5hjGJ8-6">
          <mxGeometry relative="1" as="geometry" />
        </mxCell>
        <mxCell id="ccWnFZst2IsXS-5hjGJ8-4" value="&lt;i&gt;&lt;b&gt;LLM + Prompt&lt;/b&gt;&lt;/i&gt;" style="swimlane;fontStyle=0;childLayout=stackLayout;horizontal=1;startSize=30;horizontalStack=0;resizeParent=1;resizeParentMax=0;resizeLast=0;collapsible=1;marginBottom=0;whiteSpace=wrap;html=1;fillColor=#a0522d;strokeColor=#6D1F00;fillStyle=solid;fontColor=#ffffff;rounded=1;dashed=1;dashPattern=1 1;strokeWidth=2;" vertex="1" parent="1">
          <mxGeometry x="380" y="235" width="130" height="90" as="geometry" />
        </mxCell>
        <mxCell id="ccWnFZst2IsXS-5hjGJ8-9" value="&lt;b&gt;Generate Claim&lt;/b&gt;" style="text;strokeColor=#6D1F00;fillColor=#a0522d;align=center;verticalAlign=middle;spacingLeft=4;spacingRight=4;overflow=hidden;points=[[0,0.5],[1,0.5]];portConstraint=eastwest;rotatable=0;whiteSpace=wrap;html=1;fontColor=#ffffff;rounded=1;" vertex="1" parent="ccWnFZst2IsXS-5hjGJ8-4">
          <mxGeometry y="30" width="130" height="30" as="geometry" />
        </mxCell>
        <mxCell id="ccWnFZst2IsXS-5hjGJ8-5" value="&lt;b&gt;OpenAI/Anthropic&lt;/b&gt;" style="text;strokeColor=#6D1F00;fillColor=#a0522d;align=center;verticalAlign=middle;spacingLeft=4;spacingRight=4;overflow=hidden;points=[[0,0.5],[1,0.5]];portConstraint=eastwest;rotatable=0;whiteSpace=wrap;html=1;fontColor=#ffffff;rounded=1;" vertex="1" parent="ccWnFZst2IsXS-5hjGJ8-4">
          <mxGeometry y="60" width="130" height="30" as="geometry" />
        </mxCell>
        <mxCell id="ccWnFZst2IsXS-5hjGJ8-25" style="edgeStyle=orthogonalEdgeStyle;rounded=0;orthogonalLoop=1;jettySize=auto;html=1;exitX=1;exitY=0.5;exitDx=0;exitDy=0;entryX=0;entryY=0.5;entryDx=0;entryDy=0;" edge="1" parent="1" source="ccWnFZst2IsXS-5hjGJ8-6" target="ccWnFZst2IsXS-5hjGJ8-14">
          <mxGeometry relative="1" as="geometry" />
        </mxCell>
        <mxCell id="ccWnFZst2IsXS-5hjGJ8-6" value="&lt;b&gt;Claim:&amp;nbsp;&lt;/b&gt;&lt;div&gt;Ronald Shusett is the executive producer of the film with a score by Jerry Goldsmith&lt;/div&gt;" style="rounded=0;whiteSpace=wrap;html=1;fillColor=#f8cecc;strokeColor=#b85450;" vertex="1" parent="1">
          <mxGeometry x="550" y="240" width="130" height="80" as="geometry" />
        </mxCell>
        <mxCell id="ccWnFZst2IsXS-5hjGJ8-22" style="edgeStyle=orthogonalEdgeStyle;rounded=0;orthogonalLoop=1;jettySize=auto;html=1;exitX=1;exitY=0.5;exitDx=0;exitDy=0;entryX=0;entryY=0.5;entryDx=0;entryDy=0;" edge="1" parent="1" source="ccWnFZst2IsXS-5hjGJ8-7" target="ccWnFZst2IsXS-5hjGJ8-12">
          <mxGeometry relative="1" as="geometry" />
        </mxCell>
        <mxCell id="ccWnFZst2IsXS-5hjGJ8-7" value="&lt;i&gt;&lt;b&gt;LLM + Prompt&lt;/b&gt;&lt;/i&gt;" style="swimlane;fontStyle=0;childLayout=stackLayout;horizontal=1;startSize=30;horizontalStack=0;resizeParent=1;resizeParentMax=0;resizeLast=0;collapsible=1;marginBottom=0;whiteSpace=wrap;html=1;fillColor=#a0522d;strokeColor=#6D1F00;fillStyle=solid;fontColor=#ffffff;rounded=1;dashed=1;dashPattern=1 1;strokeWidth=2;" vertex="1" parent="1">
          <mxGeometry x="380" y="445" width="130" height="90" as="geometry" />
        </mxCell>
        <mxCell id="ccWnFZst2IsXS-5hjGJ8-10" value="&lt;b&gt;Remove Duplicates&lt;/b&gt;" style="text;strokeColor=#6D1F00;fillColor=#a0522d;align=center;verticalAlign=middle;spacingLeft=4;spacingRight=4;overflow=hidden;points=[[0,0.5],[1,0.5]];portConstraint=eastwest;rotatable=0;whiteSpace=wrap;html=1;fontColor=#ffffff;rounded=1;" vertex="1" parent="ccWnFZst2IsXS-5hjGJ8-7">
          <mxGeometry y="30" width="130" height="30" as="geometry" />
        </mxCell>
        <mxCell id="ccWnFZst2IsXS-5hjGJ8-8" value="&lt;b&gt;OpenAI/Anthropic&lt;/b&gt;" style="text;strokeColor=#6D1F00;fillColor=#a0522d;align=center;verticalAlign=middle;spacingLeft=4;spacingRight=4;overflow=hidden;points=[[0,0.5],[1,0.5]];portConstraint=eastwest;rotatable=0;whiteSpace=wrap;html=1;fontColor=#ffffff;rounded=1;" vertex="1" parent="ccWnFZst2IsXS-5hjGJ8-7">
          <mxGeometry y="60" width="130" height="30" as="geometry" />
        </mxCell>
        <mxCell id="ccWnFZst2IsXS-5hjGJ8-21" style="edgeStyle=orthogonalEdgeStyle;rounded=0;orthogonalLoop=1;jettySize=auto;html=1;exitX=1;exitY=0.5;exitDx=0;exitDy=0;entryX=0;entryY=0.5;entryDx=0;entryDy=0;" edge="1" parent="1" source="ccWnFZst2IsXS-5hjGJ8-11" target="ccWnFZst2IsXS-5hjGJ8-10">
          <mxGeometry relative="1" as="geometry" />
        </mxCell>
        <mxCell id="ccWnFZst2IsXS-5hjGJ8-11" value="&lt;b style=&quot;background-color: initial;&quot;&gt;R4C Annotations:&lt;/b&gt;&lt;div&gt;&lt;b&gt;&lt;br&gt;&lt;/b&gt;&lt;div style=&quot;text-align: left;&quot;&gt;&lt;ul&gt;&lt;li&gt;&lt;span style=&quot;background-color: initial;&quot;&gt;Alien (soundtrack) is composed by Jerry Goldsmith&lt;/span&gt;&lt;/li&gt;&lt;li&gt;&lt;span style=&quot;background-color: initial;&quot;&gt;Alien is executive produced by Ronald Shusett&lt;/span&gt;&lt;/li&gt;&lt;li&gt;&lt;span style=&quot;background-color: initial;&quot;&gt;...&lt;/span&gt;&lt;/li&gt;&lt;/ul&gt;&lt;/div&gt;&lt;/div&gt;" style="rounded=0;whiteSpace=wrap;html=1;fillColor=#f8cecc;strokeColor=#b85450;" vertex="1" parent="1">
          <mxGeometry x="170" y="410" width="160" height="160" as="geometry" />
        </mxCell>
        <mxCell id="ccWnFZst2IsXS-5hjGJ8-24" style="edgeStyle=orthogonalEdgeStyle;rounded=0;orthogonalLoop=1;jettySize=auto;html=1;exitX=1;exitY=0.5;exitDx=0;exitDy=0;entryX=0;entryY=0.5;entryDx=0;entryDy=0;" edge="1" parent="1" source="ccWnFZst2IsXS-5hjGJ8-12" target="ccWnFZst2IsXS-5hjGJ8-14">
          <mxGeometry relative="1" as="geometry" />
        </mxCell>
        <mxCell id="ccWnFZst2IsXS-5hjGJ8-12" value="&lt;b&gt;Golden Evidence KB:&lt;/b&gt;&lt;div&gt;&lt;ul&gt;&lt;li style=&quot;text-align: left;&quot;&gt;Alien is a film&lt;br&gt;&lt;/li&gt;&lt;li style=&quot;text-align: left;&quot;&gt;...&lt;/li&gt;&lt;/ul&gt;&lt;/div&gt;" style="rounded=0;whiteSpace=wrap;html=1;fillColor=#f8cecc;strokeColor=#b85450;" vertex="1" parent="1">
          <mxGeometry x="550" y="455" width="130" height="70" as="geometry" />
        </mxCell>
        <mxCell id="ccWnFZst2IsXS-5hjGJ8-26" style="edgeStyle=orthogonalEdgeStyle;rounded=0;orthogonalLoop=1;jettySize=auto;html=1;exitX=1;exitY=0.5;exitDx=0;exitDy=0;entryX=0;entryY=0.5;entryDx=0;entryDy=0;" edge="1" parent="1" source="ccWnFZst2IsXS-5hjGJ8-13" target="ccWnFZst2IsXS-5hjGJ8-16">
          <mxGeometry relative="1" as="geometry" />
        </mxCell>
        <mxCell id="ccWnFZst2IsXS-5hjGJ8-13" value="&lt;i&gt;&lt;b&gt;LLM + Prompt&lt;/b&gt;&lt;/i&gt;" style="swimlane;fontStyle=0;childLayout=stackLayout;horizontal=1;startSize=30;horizontalStack=0;resizeParent=1;resizeParentMax=0;resizeLast=0;collapsible=1;marginBottom=0;whiteSpace=wrap;html=1;fillColor=#a0522d;strokeColor=#6D1F00;fillStyle=solid;fontColor=#ffffff;rounded=1;dashed=1;dashPattern=1 1;strokeWidth=2;" vertex="1" parent="1">
          <mxGeometry x="730" y="330" width="130" height="90" as="geometry" />
        </mxCell>
        <mxCell id="ccWnFZst2IsXS-5hjGJ8-14" value="&lt;b&gt;Generate Explanation&lt;/b&gt;" style="text;strokeColor=#6D1F00;fillColor=#a0522d;align=center;verticalAlign=middle;spacingLeft=4;spacingRight=4;overflow=hidden;points=[[0,0.5],[1,0.5]];portConstraint=eastwest;rotatable=0;whiteSpace=wrap;html=1;fontColor=#ffffff;rounded=1;" vertex="1" parent="ccWnFZst2IsXS-5hjGJ8-13">
          <mxGeometry y="30" width="130" height="30" as="geometry" />
        </mxCell>
        <mxCell id="ccWnFZst2IsXS-5hjGJ8-15" value="&lt;b&gt;OpenAI/Anthropic&lt;/b&gt;" style="text;strokeColor=#6D1F00;fillColor=#a0522d;align=center;verticalAlign=middle;spacingLeft=4;spacingRight=4;overflow=hidden;points=[[0,0.5],[1,0.5]];portConstraint=eastwest;rotatable=0;whiteSpace=wrap;html=1;fontColor=#ffffff;rounded=1;" vertex="1" parent="ccWnFZst2IsXS-5hjGJ8-13">
          <mxGeometry y="60" width="130" height="30" as="geometry" />
        </mxCell>
        <mxCell id="ccWnFZst2IsXS-5hjGJ8-16" value="&lt;b&gt;Golden Explanation:&amp;nbsp;&lt;/b&gt;&lt;div&gt;Ronald Shusett is the executive producer of the film Alien, which has a score composed by Jerry Goldsmith.&lt;/div&gt;" style="rounded=0;whiteSpace=wrap;html=1;fillColor=#f8cecc;strokeColor=#b85450;" vertex="1" parent="1">
          <mxGeometry x="920" y="322.5" width="160" height="105" as="geometry" />
        </mxCell>
      </root>
    </mxGraphModel>
  </diagram>
</mxfile>
